<mxfile host="app.diagrams.net" modified="2022-01-19T02:38:23.685Z" agent="5.0 (Windows NT 10.0; WOW64) AppleWebKit/537.36 (KHTML, like Gecko) Chrome/86.0.4240.198 Safari/537.36" etag="wu0T426EtInfF7lxESgK" version="16.2.7" type="github">
  <diagram id="K4yGt1C2GJqgpi1UTneV" name="第 1 页">
    <mxGraphModel dx="1786" dy="919" grid="1" gridSize="10" guides="1" tooltips="1" connect="1" arrows="1" fold="1" page="1" pageScale="1" pageWidth="827" pageHeight="1169" math="0" shadow="0">
      <root>
        <mxCell id="0" />
        <mxCell id="1" parent="0" />
        <mxCell id="qaFhiFHTIReD1pMBW6Ui-3" value="" style="rounded=0;whiteSpace=wrap;html=1;fontSize=18;" parent="1" vertex="1">
          <mxGeometry x="70" y="540" width="820" height="90" as="geometry" />
        </mxCell>
        <mxCell id="qaFhiFHTIReD1pMBW6Ui-2" value="" style="rounded=0;whiteSpace=wrap;html=1;fontSize=18;" parent="1" vertex="1">
          <mxGeometry x="70" y="365" width="820" height="90" as="geometry" />
        </mxCell>
        <mxCell id="qaFhiFHTIReD1pMBW6Ui-1" value="" style="rounded=0;whiteSpace=wrap;html=1;fontSize=18;" parent="1" vertex="1">
          <mxGeometry x="70" y="180" width="820" height="90" as="geometry" />
        </mxCell>
        <mxCell id="FQEMu88v7grN8G_3xCds-3" value="&lt;font style=&quot;font-size: 18px&quot;&gt;视频监控模块&lt;/font&gt;" style="rounded=1;whiteSpace=wrap;html=1;" parent="1" vertex="1">
          <mxGeometry x="111" y="195" width="120" height="60" as="geometry" />
        </mxCell>
        <mxCell id="FQEMu88v7grN8G_3xCds-4" value="设备控制模块" style="rounded=1;whiteSpace=wrap;html=1;fontSize=18;" parent="1" vertex="1">
          <mxGeometry x="270" y="195" width="120" height="60" as="geometry" />
        </mxCell>
        <mxCell id="FQEMu88v7grN8G_3xCds-5" value="数据采集模块" style="rounded=1;whiteSpace=wrap;html=1;fontSize=18;" parent="1" vertex="1">
          <mxGeometry x="430" y="195" width="120" height="60" as="geometry" />
        </mxCell>
        <mxCell id="FQEMu88v7grN8G_3xCds-6" value="数据可视化模块" style="rounded=1;whiteSpace=wrap;html=1;fontSize=18;" parent="1" vertex="1">
          <mxGeometry x="590" y="195" width="120" height="60" as="geometry" />
        </mxCell>
        <mxCell id="FQEMu88v7grN8G_3xCds-7" value="" style="shape=flexArrow;endArrow=classic;startArrow=classic;html=1;" parent="1" edge="1" target="qaFhiFHTIReD1pMBW6Ui-1">
          <mxGeometry width="50" height="50" relative="1" as="geometry">
            <mxPoint x="482" y="365" as="sourcePoint" />
            <mxPoint x="482" y="275" as="targetPoint" />
            <Array as="points">
              <mxPoint x="482" y="305" />
            </Array>
          </mxGeometry>
        </mxCell>
        <mxCell id="FQEMu88v7grN8G_3xCds-8" value="&lt;font style=&quot;font-size: 18px&quot;&gt;LoRa自组织网络&lt;/font&gt;" style="rounded=1;whiteSpace=wrap;html=1;" parent="1" vertex="1">
          <mxGeometry x="346" y="380" width="136" height="60" as="geometry" />
        </mxCell>
        <mxCell id="FQEMu88v7grN8G_3xCds-9" value="光照强度监控" style="rounded=1;whiteSpace=wrap;html=1;fontSize=18;" parent="1" vertex="1">
          <mxGeometry x="110" y="555" width="120" height="60" as="geometry" />
        </mxCell>
        <mxCell id="FQEMu88v7grN8G_3xCds-10" value="" style="shape=flexArrow;endArrow=classic;startArrow=classic;html=1;" parent="1" edge="1">
          <mxGeometry width="50" height="50" relative="1" as="geometry">
            <mxPoint x="482.5" y="540" as="sourcePoint" />
            <mxPoint x="482" y="455" as="targetPoint" />
            <Array as="points">
              <mxPoint x="482" y="515" />
            </Array>
          </mxGeometry>
        </mxCell>
        <mxCell id="FQEMu88v7grN8G_3xCds-11" value="水位监控" style="rounded=1;whiteSpace=wrap;html=1;fontSize=18;" parent="1" vertex="1">
          <mxGeometry x="270" y="555" width="120" height="60" as="geometry" />
        </mxCell>
        <mxCell id="FQEMu88v7grN8G_3xCds-12" value="监控摄像" style="rounded=1;whiteSpace=wrap;html=1;fontSize=18;" parent="1" vertex="1">
          <mxGeometry x="430" y="555" width="120" height="60" as="geometry" />
        </mxCell>
        <mxCell id="FQEMu88v7grN8G_3xCds-13" value="温湿度监控" style="rounded=1;whiteSpace=wrap;html=1;fontSize=18;" parent="1" vertex="1">
          <mxGeometry x="590" y="555" width="120" height="60" as="geometry" />
        </mxCell>
        <mxCell id="FQEMu88v7grN8G_3xCds-14" value="感知层" style="text;html=1;strokeColor=none;fillColor=none;align=center;verticalAlign=middle;whiteSpace=wrap;rounded=0;strokeWidth=4;fontSize=23;" parent="1" vertex="1">
          <mxGeometry x="760" y="575" width="80" height="20" as="geometry" />
        </mxCell>
        <mxCell id="FQEMu88v7grN8G_3xCds-15" value="传输层" style="text;html=1;strokeColor=none;fillColor=none;align=center;verticalAlign=middle;whiteSpace=wrap;rounded=0;strokeWidth=4;fontSize=23;" parent="1" vertex="1">
          <mxGeometry x="760" y="400" width="80" height="20" as="geometry" />
        </mxCell>
        <mxCell id="FQEMu88v7grN8G_3xCds-16" value="应用层" style="text;html=1;strokeColor=none;fillColor=none;align=center;verticalAlign=middle;whiteSpace=wrap;rounded=0;strokeWidth=4;fontSize=23;" parent="1" vertex="1">
          <mxGeometry x="760" y="215" width="80" height="20" as="geometry" />
        </mxCell>
      </root>
    </mxGraphModel>
  </diagram>
</mxfile>
